<?xml version="1.0" encoding="UTF-8" standalone="no"?>
<!-- Created with Type 3.2 font editor (http://cr8software.net) -->

<svg
  width="2048"
  height="2048"
 viewBox="0 0 2048 2048"
  id="svg2"
  version="1.1"
  >
  <g id="layer1">
  <path
    style="fill:none;stroke:#000000;stroke-width:3px;stroke-linecap:butt;stroke-linejoin:miter;stroke-opacity:1"
    d="m 394,1324 c -11,0 -22,-4 -33,-12 c -11,-10 -17,-20 -17,-31 c 0,-30 3,-62 9,-94 c 6,-33 9,-53 10,-59 c 4,-21 8,-51 12,-89 c -18,11 -42,30 -72,56 c -51,42 -91,72 -121,90 c -4,4 -10,6 -18,6 c -8,0 -16,-2 -25,-6 c -8,-4 -14,-11 -18,-19 c -4,-12 -6,-21 -8,-26 c 2,-18 9,-31 22,-37 c 38,-21 85,-42 142,-62 l 82,-32 l -82,-31 c -57,-22 -104,-44 -142,-64 c -13,-8 -20,-21 -22,-37 c 2,-7 4,-15 8,-24 c 4,-10 10,-17 18,-21 c 9,-6 17,-8 25,-8 c 8,0 14,2 18,6 c 30,16 70,47 121,93 c 30,24 54,42 72,55 c -4,-39 -8,-68 -12,-86 c -1,-8 -4,-29 -10,-62 c -6,-34 -9,-65 -9,-92 c 0,-12 5,-23 15,-31 c 12,-10 24,-14 35,-12 c 12,-3 23,0 32,10 c 12,10 17,21 17,33 c 0,26 -2,56 -8,90 c -4,34 -8,56 -11,64 c -4,18 -8,47 -14,86 c 20,-13 44,-31 74,-55 c 52,-46 92,-77 119,-93 c 6,-4 12,-6 20,-6 c 9,-2 17,0 23,6 c 10,4 16,11 20,23 c 6,9 8,17 8,24 c 2,16 -6,29 -22,37 c -35,20 -82,42 -142,64 l -82,31 l 82,32 c 60,20 107,41 142,62 c 16,6 24,19 22,37 c 0,5 -2,14 -8,26 c -4,7 -10,13 -20,17 c -6,5 -14,8 -23,8 c -8,0 -14,-2 -20,-6 c -27,-18 -67,-48 -119,-90 c -30,-26 -54,-45 -74,-56 c 6,38 10,68 14,89 c 3,5 7,24 11,57 c 6,34 8,66 8,96 c 2,11 -3,21 -15,29 c -9,8 -20,12 -34,14 "
  id="path0" />
  </g>
</svg>
