<?xml version="1.0" encoding="UTF-8" standalone="no"?>
<svg
   xmlns:dc="http://purl.org/dc/elements/1.1/"
   xmlns:cc="http://creativecommons.org/ns#"
   xmlns:rdf="http://www.w3.org/1999/02/22-rdf-syntax-ns#"
   xmlns:svg="http://www.w3.org/2000/svg"
   xmlns="http://www.w3.org/2000/svg"
   xmlns:sodipodi="http://sodipodi.sourceforge.net/DTD/sodipodi-0.dtd"
   xmlns:inkscape="http://www.inkscape.org/namespaces/inkscape"
   width="2048"
   height="2048"
   viewBox="0 0 2048 2048"
   id="svg2"
   version="1.1"
   sodipodi:docname="percent-net.svg"
   inkscape:version="1.0.2-2 (e86c870879, 2021-01-15)">
  <metadata
     id="metadata36">
    <rdf:RDF>
      <cc:Work
         rdf:about="">
        <dc:format>image/svg+xml</dc:format>
        <dc:type
           rdf:resource="http://purl.org/dc/dcmitype/StillImage" />
        <dc:title></dc:title>
      </cc:Work>
    </rdf:RDF>
  </metadata>
  <defs
     id="defs34" />
  <sodipodi:namedview
     pagecolor="#ffffff"
     bordercolor="#666666"
     borderopacity="1"
     objecttolerance="10"
     gridtolerance="10"
     guidetolerance="10"
     inkscape:pageopacity="0"
     inkscape:pageshadow="2"
     inkscape:window-width="1920"
     inkscape:window-height="1017"
     id="namedview32"
     showgrid="false"
     inkscape:snap-bbox="true"
     inkscape:bbox-paths="true"
     inkscape:bbox-nodes="true"
     inkscape:snap-bbox-edge-midpoints="true"
     inkscape:snap-bbox-midpoints="true"
     inkscape:object-paths="true"
     inkscape:snap-intersection-paths="true"
     inkscape:snap-smooth-nodes="true"
     inkscape:snap-midpoints="true"
     inkscape:snap-object-midpoints="true"
     inkscape:snap-center="true"
     inkscape:snap-text-baseline="true"
     inkscape:snap-page="true"
     inkscape:zoom="0.41503906"
     inkscape:cx="902.62753"
     inkscape:cy="1315.6384"
     inkscape:window-x="-8"
     inkscape:window-y="-4"
     inkscape:window-maximized="1"
     inkscape:current-layer="svg2" />
  <path
     id="rect38"
     style="opacity:1;fill:#000000;fill-rule:evenodd"
     inkscape:transform-center-x="67.790034"
     inkscape:transform-center-y="265.62301"
     transform="rotate(34.324458)"
     d="m 1364.5913,-55.05051 h 103.2322 V 1477.6465 h -103.2322 z" />
  <path
     id="path40"
     style="fill:#000000;fill-rule:evenodd;stroke-width:1.14454;fill-opacity:1;opacity:1"
     d="M 397.97852 711.41016 A 332.04541 332.04541 0 0 0 66.529297 1043.4551 A 332.04541 332.04541 0 0 0 398.57422 1375.5 A 332.04541 332.04541 0 0 0 730.62109 1043.4551 A 332.04541 332.04541 0 0 0 398.57422 711.41016 A 332.04541 332.04541 0 0 0 397.97852 711.41016 z M 398.16602 812.4668 A 230.03391 230.03391 0 0 1 398.57227 812.4668 A 230.03391 230.03391 0 0 1 628.60547 1042.5 A 230.03391 230.03391 0 0 1 398.57227 1272.5332 A 230.03391 230.03391 0 0 1 168.53711 1042.5 A 230.03391 230.03391 0 0 1 398.16602 812.4668 z " />
  <path
     id="path40-2"
     style="fill:#000000;fill-opacity:1;fill-rule:evenodd;stroke-width:1.14454;opacity:1"
     d="m 1133.4063,1407.9434 a 332.04541,332.04541 0 0 0 -331.44927,332.0449 332.04541,332.04541 0 0 0 332.04497,332.0449 332.04541,332.04541 0 0 0 332.0468,-332.0449 332.04541,332.04541 0 0 0 -332.0468,-332.0449 332.04541,332.04541 0 0 0 -0.5957,0 z M 1133.5938,1509 a 230.03391,230.03391 0 0 1 0.4062,0 230.03391,230.03391 0 0 1 230.0332,230.0332 A 230.03391,230.03391 0 0 1 1134,1969.0664 230.03391,230.03391 0 0 1 903.96484,1739.0332 230.03391,230.03391 0 0 1 1133.5938,1509 Z" />
</svg>
